<?xml version="1.0" encoding="utf-8"?>
<!-- Generator: Adobe Illustrator 21.1.0, SVG Export Plug-In . SVG Version: 6.00 Build 0)  -->
<svg version="1.1" id="Layer_1" xmlns="http://www.w3.org/2000/svg" xmlns:xlink="http://www.w3.org/1999/xlink" x="0px" y="0px"
	 viewBox="0 0 612.9 952" style="enable-background:new 0 0 612.9 952;" xml:space="preserve">
<style type="text/css">
	.st0{fill:#FFB8B8;}
	.st1{fill:#2F2E41;}
	.st2{fill:#3F3D56;}
</style>
<path class="st0" d="M6.3,342.4c4.9,15.5,21.6,23.8,37.3,18.4c1.7-0.6,3.3-1.3,4.9-2.1l77,70.5l9.4-54.4l-74.6-58.5
	c-8.6-13.9-27-17.8-41.1-8.9C7.4,314.9,2,329.4,6.3,342.4z"/>
<path class="st1" d="M294.8,493c-25.6,101.8-24.7,272.5-17.5,459h121l5.3-35l7,35h114c0,0-8.8-473.9-24.5-489
	C484.2,448.1,294.8,493,294.8,493z"/>
<circle class="st0" cx="403.6" cy="136.1" r="66.1"/>
<path class="st2" d="M442.6,218.4l12,21.2l83,34l-21.8,194.1l-9.2,20.1l5,17.4l-12,12.9c12,10,13.5,20.5,7,31.3l-38.2,8
	c0,0-212.5,17.3-194.6-12.9c19.6-33.1,24.6-130.7-18.6-182.9c-36.7-44.3-8.5-101.8-8.5-101.8l87-23.9l32-17.4L442.6,218.4z"/>
<path class="st1" d="M432.8,39.4c0.6-1.3,2-2.2,3.6-2c-30.2-1.8-62.1,1.7-87.4,18.4c-6.1,4.1-11.9,8.8-18.6,11.7
	c-1,0.4-1.5,1.6-1,2.7c0.1,0.3,0.3,0.5,0.6,0.8l0.8,0.5c0.9,0.6,1.1,1.9,0.3,2.8c-0.2,0.3-0.6,0.5-1,0.6l0,0
	c-1.1,0.3-1.6,1.4-1.3,2.5c0.1,0.4,0.4,0.9,0.9,1.1l5.6,3.7c1,0.5,1.2,1.8,0.6,2.8c-0.1,0.2-0.3,0.4-0.6,0.6c-0.4,0.3-1,0.5-1.5,0.8
	c-1.1,0.4-1.5,1.5-1.2,2.6c0.1,0.3,0.3,0.5,0.5,0.8c2.5,2.2,4.3,4.8,5.4,8c1.8,4.8,2.3,10.1,2.5,15.4c1.9-7.5,10.1-11.9,17.9-12.4
	c7.7-0.4,15.3,2.2,22.8,4c16.4,4,33.5,4.6,50,1.9c-5.7,11.3-0.9,24.9,3.9,36.6l15.5-6.7c21.3-12.1,6.5,38.9-1.5,45.9
	c16.2,5.6,59-57,45.2-80.8c-7.1-12.4-2-28.3-16.1-40c-6.9-7.2-20.6-4-27.7-10c-2.8-2.4,1.4-8.7-2.4-10.1
	C447.7,40.9,433.1,39,432.8,39.4z"/>
<path class="st2" d="M324.5,259.2c-24,49.6-82.9,164.7-119.2,183.6c-2.4,1.4-5,2.3-7.7,2.6c-112.7,3.4-131-70.5-131-70.5
	s31.9-7.9,39.1-35.1l53.3,30.3l77.2-102.9l9.1-5.4l0.1-0.1L324.5,259.2z"/>
<path class="st0" d="M501,706.5c12.1-9.6,14.1-27.2,4.5-39.3c-1-1.3-2.2-2.5-3.4-3.6l37.7-92l-50.7,9.9l-28,85.9
	c-9.5,12.3-7.2,30,5.1,39.5C476.5,714.8,490.9,714.7,501,706.5z"/>
<path class="st2" d="M515.5,265.8l22.3,7.5c0,0,76.8,192.1,50.8,224.9s-64.8,145.7-64.8,145.7s-40.3-12.1-54.1-34.5L511.5,475
	l-18.7-118L515.5,265.8z"/>
</svg>
