<svg version="1.1" viewBox="0 0 640 640">
	<path fill="#2B7FD5" d="M561.5,408.8c0,143.8-256.8,193.2-421,206.3c-34.9,2.8-58.8-123.5-58.8-287s23.7-299.7,75-307.7
		C320.2-4.9,561.5,153.1,561.5,408.8L561.5,408.8z" />
	<path fill="#FFFFFF" d="M262.3,476.2c-81.3-5.3-124.5-74.4-119.1-155.8c5.3-81.4,44-169.1,125.3-163.8s172.1,100.2,166.8,181.5
		C430,419.5,343.6,481.5,262.3,476.2L262.3,476.2z" />
	<path fill="#9E9D9D" d="M279.8,225.3c-53.8,3.1-94.9,49.2-91.8,102.9c3.1,53.8,49.2,94.9,102.9,91.8c53.8-3.1,94.9-49.2,91.8-102.9
		C379.7,263.3,333.6,222.2,279.8,225.3L279.8,225.3z" />
	<path d="M266.1,282c-30.7,1.8-54.2,28.1-52.4,58.8s28.1,54.2,58.8,52.4s54.2-28.1,52.4-58.8C323.2,303.8,296.8,280.3,266.1,282
		L266.1,282z" />
	<path fill="#FFFFFF" d="M240.3,320.9c-9.2,0.5-16.2,8.4-15.7,17.6c0.5,9.2,8.4,16.2,17.6,15.7c9.2-0.5,16.2-8.4,15.7-17.6
		C257.5,327.5,249.5,320.4,240.3,320.9L240.3,320.9z" />
</svg>