<svg version="1.1" xmlns="http://www.w3.org/2000/svg" x="0px" y="0px" viewBox="0 0 310 310">
  <g>
    <path d="M280.2,75.2c-4,1.8-8.1,3.3-12.3,4.5c5-5.6,8.8-12.3,11.1-19.5c0.5-1.6,0-3.4-1.4-4.5c-1.3-1.1-3.2-1.2-4.7-0.3
		c-8.9,5.3-18.6,9.1-28.7,11.3c-10.2-10-24-15.6-38.3-15.6c-30.2,0-54.7,24.6-54.7,54.7c0,2.4,0.2,4.7,0.4,7.1
		c-37.5-3.3-72.3-21.7-96.2-51c-0.9-1-2.2-1.6-3.5-1.5c-1.3,0.1-2.6,0.9-3.2,2c-4.8,8.3-7.4,17.8-7.4,27.5c0,13.2,4.7,25.7,13,35.5
		c-2.5-0.9-5-2-7.3-3.3c-1.3-0.7-2.8-0.7-4,0c-1.3,0.7-2,2-2.1,3.5c0,0.2,0,0.5,0,0.7c0,19.7,10.6,37.4,26.8,47.1
		c-1.4-0.1-2.8-0.3-4.2-0.6c-1.4-0.3-2.9,0.2-3.9,1.3c-1,1.1-1.3,2.6-0.8,4c6,18.7,21.4,32.5,40.1,36.7
		c-15.5,9.7-33.2,14.8-51.8,14.8c-3.9,0-7.8-0.2-11.6-0.7c-1.9-0.2-3.7,0.9-4.4,2.7c-0.6,1.8,0,3.8,1.7,4.8
		c23.9,15.3,51.5,23.4,79.8,23.4c55.7,0,90.6-26.3,110-48.3c24.2-27.5,38.1-63.9,38.1-99.8c0-1.5,0-3-0.1-4.5
		c9.6-7.2,17.8-15.9,24.5-25.9c1-1.5,0.9-3.5-0.3-4.9C283.9,74.9,281.9,74.5,280.2,75.2z" />
  </g>
</svg>
